<?xml-stylesheet href="spot.css" type="text/css"?><svg width="557pt" height="272pt" viewBox="0 0 557 271.93" xmlns="http://www.w3.org/2000/svg"><g class="graph"><path fill="#fff" stroke="transparent" d="M0 271.93V0h557v271.93H0z"/><text x="112" y="-251.33" font-family="Lato" font-size="12" transform="translate(4 267.93)">Inf(</text><text x="133" y="-251.33" font-family="Lato" font-size="12" fill="#e31a1c" transform="translate(4 267.93)">❺</text><text x="144" y="-251.33" font-family="Lato" font-size="12" transform="translate(4 267.93)">) | (Fin(</text><text x="186" y="-251.33" font-family="Lato" font-size="12" fill="#33a02c" transform="translate(4 267.93)">❹</text><text x="197" y="-251.33" font-family="Lato" font-size="12" transform="translate(4 267.93)">) &amp; (Inf(</text><text x="243" y="-251.33" font-family="Lato" font-size="12" fill="#6a3d9a" transform="translate(4 267.93)">❸</text><text x="254" y="-251.33" font-family="Lato" font-size="12" transform="translate(4 267.93)">) | (Fin(</text><text x="296" y="-251.33" font-family="Lato" font-size="12" fill="#ff7f00" transform="translate(4 267.93)">❷</text><text x="307" y="-251.33" font-family="Lato" font-size="12" transform="translate(4 267.93)">) &amp; (Inf(</text><text x="353" y="-251.33" font-family="Lato" font-size="12" fill="#ff4da0" transform="translate(4 267.93)">❶</text><text x="364" y="-251.33" font-family="Lato" font-size="12" transform="translate(4 267.93)">) | Fin(</text><text x="401" y="-251.33" font-family="Lato" font-size="12" fill="#1f78b4" transform="translate(4 267.93)">⓿</text><text x="414" y="-251.33" font-family="Lato" font-size="12" transform="translate(4 267.93)">)))))</text><text x="218.5" y="-239.33" font-family="Lato" font-size="12" transform="translate(4 267.93)">[parity max odd 6]</text><g class="node" transform="translate(4 267.93)"><circle fill="#ffffa0" stroke="#000" cx="56" cy="-107.93" r="18"/><text text-anchor="middle" x="56" y="-104.83" font-family="Lato" font-size="12">3</text></g><g class="edge" transform="translate(4 267.93)"><path fill="none" stroke="#000" d="M1.15-107.93h29.48"/><path stroke="#000" d="M37.94-107.93l-7-3.15 3.5 3.15h-3.5 3.5l-3.5 3.15 7-3.15h0z"/></g><g class="node" transform="translate(4 267.93)"><path fill="#ffffa0" stroke="#000" d="M150-191.93l-27 18 27 18 27-18-27-18z"/><text text-anchor="middle" x="150" y="-170.83" font-family="Lato" font-size="12">5</text></g><g class="edge" transform="translate(4 267.93)"><path fill="none" stroke="#000" d="M70.97-117.96c15.85-11.37 41.77-29.96 59.34-42.57"/><path stroke="#000" d="M136.38-164.88l-7.53 1.52 4.68.52-2.84 2.04h0l2.84-2.04-1 4.6 3.85-6.64h0z"/><text x="92" y="-157.33" font-family="Lato" font-size="12">!a</text><text x="93" y="-144.33" font-family="Lato" font-size="12" fill="#ff4da0">❶</text></g><g class="node" transform="translate(4 267.93)"><path fill="#ffffa0" stroke="#000" d="M150-76.93l-27 18 27 18 27-18-27-18z"/><text text-anchor="middle" x="150" y="-55.83" font-family="Lato" font-size="12">8</text></g><g class="edge" transform="translate(4 267.93)"><path fill="none" stroke="#000" d="M72.8-101.27c9.47 4.14 21.69 9.73 32.2 15.34 8.28 4.41 17.14 9.73 24.73 14.48"/><path stroke="#000" d="M135.77-67.63l-4.23-6.41 1.27 4.54-2.96-1.88h0l2.96 1.88-4.64.78 7.6 1.09h0z"/><text x="94.5" y="-109.33" font-family="Lato" font-size="12">a</text><text x="93" y="-96.33" font-family="Lato" font-size="12" fill="#ff4da0">❶</text></g><g class="node" transform="translate(4 267.93)"><circle fill="#ffffa0" stroke="#000" cx="430" cy="-118.93" r="18"/><text text-anchor="middle" x="430" y="-115.83" font-family="Lato" font-size="12">0</text></g><g class="node" transform="translate(4 267.93)"><path fill="#ffffa0" stroke="#000" d="M522-136.93l-27 18 27 18 27-18-27-18z"/><text text-anchor="middle" x="522" y="-115.83" font-family="Lato" font-size="12">4</text></g><g class="edge" transform="translate(4 267.93)"><path fill="none" stroke="#000" d="M448.07-120.69c5.7-.51 12.08-.99 17.93-1.24 8.12-.35 16.91-.14 25.03.3"/><path stroke="#000" d="M498.26-121.17l-6.79-3.58 3.3 3.36-3.5-.22h0l3.5.22-3.7 2.92 7.19-2.7h0z"/><text x="467.5" y="-138.33" font-family="Lato" font-size="12">1</text><text x="466" y="-125.33" font-family="Lato" font-size="12" fill="#ff4da0">❶</text></g><g class="edge" transform="translate(4 267.93)"><path fill="none" stroke="#000" d="M510.39-108.07c-10.82 9.71-28.28 21.63-44.39 16.14-6.16-2.1-12.08-5.77-17.24-9.75"/><path stroke="#000" d="M443.07-106.4l3.37 6.9-.67-4.66 2.69 2.23h0l-2.69-2.23 4.7-.19-7.4-2.05h0z"/><text x="467.5" y="-108.33" font-family="Lato" font-size="12">1</text><text x="466" y="-95.33" font-family="Lato" font-size="12" fill="#e31a1c">❺</text></g><g class="node" transform="translate(4 267.93)"><circle fill="#ffffa0" stroke="#000" cx="244" cy="-206.93" r="18"/><text text-anchor="middle" x="244" y="-203.83" font-family="Lato" font-size="12">1</text></g><g class="edge" transform="translate(4 267.93)"><path fill="none" stroke="#000" d="M231.41-193.55c-6.25 6.23-14.49 13.05-23.41 16.62-8.42 3.37-18.11 4.71-27.08 5.05"/><path stroke="#000" d="M173.92-171.81l7.03 3.08-3.53-3.12 3.5-.03h0l-3.5.03 3.47-3.18-6.97 3.22h0z"/><text x="197.5" y="-193.33" font-family="Lato" font-size="12">1</text><text x="196" y="-180.33" font-family="Lato" font-size="12" fill="#ff4da0">❶</text></g><g class="edge" transform="translate(4 267.93)"><path fill="none" stroke="#000" d="M172.27-170.69c42.43 6.61 140.49 22.68 221.73 41.76 3.85.9 7.9 1.96 11.83 3.04"/><path stroke="#000" d="M412.7-123.94l-5.87-4.94 2.51 3.99-3.37-.96h0l3.37.96-4.23 2.07 7.59-1.12h0z"/><text x="280" y="-168.33" font-family="Lato" font-size="12">!b</text><text x="281" y="-155.33" font-family="Lato" font-size="12" fill="#33a02c">❹</text></g><g class="edge" transform="translate(4 267.93)"><path fill="none" stroke="#000" d="M162.46-183.82c8.41-6.65 20.44-14.93 32.54-19.11 7.35-2.54 15.69-3.77 23.34-4.29"/><path stroke="#000" d="M225.69-207.54l-7.13-2.85 3.63 3-3.49.15h0l3.49-.15-3.36 3.3 6.86-3.45h0z"/><text x="197.5" y="-222.33" font-family="Lato" font-size="12">b</text><text x="196" y="-209.33" font-family="Lato" font-size="12" fill="#33a02c">❹</text></g><g class="node" transform="translate(4 267.93)"><circle fill="#ffffa0" stroke="#000" cx="244" cy="-46.93" r="18"/><text text-anchor="middle" x="244" y="-43.83" font-family="Lato" font-size="12">2</text></g><g class="node" transform="translate(4 267.93)"><path fill="#ffffa0" stroke="#000" d="M338-113.93l-27 18 27 18 27-18-27-18z"/><text text-anchor="middle" x="338" y="-92.83" font-family="Lato" font-size="12">6</text></g><g class="edge" transform="translate(4 267.93)"><path fill="none" stroke="#000" d="M259.9-55.66c6.18-3.56 13.45-7.68 20.1-11.27 11.65-6.29 24.82-13.01 35.56-18.4"/><path stroke="#000" d="M321.9-88.5l-7.67.31 4.53 1.26-3.13 1.56h0l3.13-1.56-1.72 4.38 4.86-5.95h0z"/><text x="280" y="-90.33" font-family="Lato" font-size="12">!a</text><text x="281" y="-77.33" font-family="Lato" font-size="12" fill="#ff4da0">❶</text></g><g class="node" transform="translate(4 267.93)"><path fill="#ffffa0" stroke="#000" d="M338-36.93l-27 18 27 18 27-18-27-18z"/><text text-anchor="middle" x="338" y="-15.83" font-family="Lato" font-size="12">7</text></g><g class="edge" transform="translate(4 267.93)"><path fill="none" stroke="#000" d="M261.45-41.93c14.07 4.29 34.54 10.52 50.63 15.41"/><path stroke="#000" d="M319.12-24.37l-5.78-5.06 2.44 4.04-3.35-1.02h0l3.35 1.02-4.27 1.99 7.61-.97h0z"/><text x="282.5" y="-53.33" font-family="Lato" font-size="12">a</text><text x="281" y="-40.33" font-family="Lato" font-size="12" fill="#ff4da0">❶</text></g><g class="edge" transform="translate(4 267.93)"><path fill="none" stroke="#000" d="M362.87-97.39c9.78-1 21.13-2.69 31.13-5.54 4.39-1.25 8.92-2.97 13.21-4.83"/><path stroke="#000" d="M413.7-110.72l-7.67.04 4.49 1.41-3.18 1.46h0l3.18-1.46-1.87 4.32 5.05-5.77h0z"/><text x="384.5" y="-119.33" font-family="Lato" font-size="12">1</text><text x="383" y="-106.33" font-family="Lato" font-size="12" fill="#33a02c">❹</text></g><g class="edge" transform="translate(4 267.93)"><path fill="none" stroke="#000" d="M323.85-10.06c-11.86 6.82-29.59 14-43.85 7.13-9.53-4.6-17.26-13.19-23.01-21.57"/><path stroke="#000" d="M252.98-30.79l1.1 7.59.78-4.64 1.88 2.95h0l-1.88-2.95 4.54 1.26-6.42-4.21h0z"/><text x="282.5" y="-19.33" font-family="Lato" font-size="12">1</text><text x="281" y="-6.33" font-family="Lato" font-size="12" fill="#33a02c">❹</text></g><g class="edge" transform="translate(4 267.93)"><path fill="none" stroke="#000" d="M131.01-53.4c-11.77 2.56-27.11 3.8-39.01-2.53-11.53-6.14-19.95-17.96-25.63-28.79"/><path stroke="#000" d="M63.18-91.26l.23 7.67 1.3-4.53 1.53 3.15h0l-1.53-3.15 4.37 1.77-5.9-4.91h0z"/><text x="94.5" y="-72.33" font-family="Lato" font-size="12">b</text><text x="93" y="-59.33" font-family="Lato" font-size="12" fill="#e31a1c">❺</text></g><g class="edge" transform="translate(4 267.93)"><path fill="none" stroke="#000" d="M172.8-56.09c13.85 1.81 31.78 4.15 46.06 6.01"/><path stroke="#000" d="M225.95-49.16l-6.53-4.03 3.06 3.58-3.47-.45h0l3.47.45-3.88 2.67 7.35-2.22h0z"/><text x="195" y="-69.33" font-family="Lato" font-size="12">!b</text><text x="196" y="-56.33" font-family="Lato" font-size="12" fill="#33a02c">❹</text></g></g></svg>