<?xml-stylesheet href="spot.css" type="text/css"?><svg width="296pt" height="208" viewBox="0 0 296 155.96" xmlns="http://www.w3.org/2000/svg"><g class="graph" transform="translate(4 151.96)"><path fill="#fff" stroke="transparent" d="M-4 4v-155.96h296V4H-4z"/><text x="69" y="-135.36" font-family="Lato" font-size="12">Inf(</text><text x="90" y="-135.36" font-family="Lato" font-size="12" fill="#ff7f00">❷</text><text x="101" y="-135.36" font-family="Lato" font-size="12">) | (Fin(</text><text x="143" y="-135.36" font-family="Lato" font-size="12" fill="#ff4da0">❶</text><text x="154" y="-135.36" font-family="Lato" font-size="12">) &amp; Inf(</text><text x="196" y="-135.36" font-family="Lato" font-size="12" fill="#1f78b4">⓿</text><text x="209" y="-135.36" font-family="Lato" font-size="12">))</text><text x="85" y="-123.36" font-family="Lato" font-size="12">[parity max even 3]</text><g class="node"><path fill="#ffffa0" stroke="#000" d="M62-70.96H50c-6 0-12 6-12 12v12c0 6 6 12 12 12h12c6 0 12-6 12-12v-12c0-6-6-12-12-12"/><text x="52" y="-56.36" font-family="Lato" font-size="12">2</text><text x="50.5" y="-43.36" font-family="Lato" font-size="12" fill="#ff7f00">❷</text></g><g class="edge"><path fill="none" stroke="#000" d="M1.15-52.96h29.48"/><path stroke="#000" d="M37.94-52.96l-7-3.15 3.5 3.15h-3.5 3.5l-3.5 3.15 7-3.15h0z"/></g><g class="edge"><path fill="none" stroke="#000" d="M49.49-71.11c-1-9.39 1.17-17.85 6.51-17.85 3.92 0 6.14 4.57 6.64 10.71"/><path stroke="#000" d="M62.51-71.11l3.28-6.94-3.22 3.44.07-3.5h0l-.07 3.5-3.08-3.55 3.02 7.05h0z"/><text x="40" y="-92.36" font-family="Lato" font-size="12">a &amp; b</text></g><g class="node"><path fill="#ffffa0" stroke="#000" d="M276-60.96h-12c-6 0-12 6-12 12v12c0 6 6 12 12 12h12c6 0 12-6 12-12v-12c0-6-6-12-12-12"/><text x="266" y="-46.36" font-family="Lato" font-size="12">0</text><text x="264.5" y="-33.36" font-family="Lato" font-size="12" fill="#ff4da0">❶</text></g><g class="edge"><path fill="none" stroke="#000" d="M74.04-67.4c23.28-17.94 66.53-44.87 104.96-33.56 25.31 7.45 50.23 24.48 67.4 38.16"/><path stroke="#000" d="M251.92-58.3l-3.44-6.87.72 4.66-2.71-2.21h0l2.71 2.21-4.7.23 7.42 1.98h0z"/><text x="142" y="-106.36" font-family="Lato" font-size="12">a &amp; !b</text></g><g class="node"><path fill="#ffffa0" stroke="#000" d="M166.5-60.96h-12c-6 0-12 6-12 12v12c0 6 6 12 12 12h12c6 0 12-6 12-12v-12c0-6-6-12-12-12"/><text x="156.5" y="-46.36" font-family="Lato" font-size="12">1</text><text x="155" y="-33.36" font-family="Lato" font-size="12" fill="#ff4da0">❶</text></g><g class="edge"><path fill="none" stroke="#000" d="M74.12-52.44c13.56.53 32.98 1.56 49.88 3.48 3.63.42 7.46.96 11.2 1.54"/><path stroke="#000" d="M142.22-46.26l-6.39-4.25 2.94 3.68-3.46-.57h0l3.46.57-3.97 2.54 7.42-1.97h0z"/><text x="101.5" y="-54.36" font-family="Lato" font-size="12">!a</text></g><g class="edge"><path fill="none" stroke="#000" d="M251.92-31.27C227.71-16.15 181.89 7.13 142-2.96c-22.91-5.79-45.83-19.87-62.09-31.62"/><path stroke="#000" d="M74.24-38.79l3.75 6.7-.94-4.61 2.81 2.08h0l-2.81-2.08 4.69-.45-7.5-1.64h0z"/><text x="156.5" y="-6.36" font-family="Lato" font-size="12">b</text></g><g class="edge"><path fill="none" stroke="#000" d="M260.23-61.11c-1.5-9.39 1.75-17.85 9.77-17.85 5.89 0 9.21 4.57 9.96 10.71"/><path stroke="#000" d="M279.77-61.11l3.33-6.91-3.24 3.41.1-3.5h0l-.1 3.5-3.05-3.58 2.96 7.08h0z"/><text x="263.5" y="-82.36" font-family="Lato" font-size="12">!b</text></g><g class="edge"><path fill="none" stroke="#000" d="M142.39-38.12c-13.76 3.16-33.51 6.05-50.39 2.16-3.79-.87-7.64-2.2-11.33-3.75"/><path stroke="#000" d="M74.23-42.68l5.04 5.79-1.86-4.33 3.18 1.47h0l-3.18-1.47 4.5-1.39-7.68-.07h0z"/><text x="92" y="-39.36" font-family="Lato" font-size="12">a &amp; b</text></g><g class="edge"><path fill="none" stroke="#000" d="M178.77-42.96h66"/><path stroke="#000" d="M251.77-42.96l-7-3.15 3.5 3.15h-3.5 3.5l-3.5 3.15 7-3.15h0z"/><text x="197" y="-46.36" font-family="Lato" font-size="12">a &amp; !b</text></g><g class="edge"><path fill="none" stroke="#000" d="M151.09-61.11c-1.44-9.39 1.69-17.85 9.41-17.85 5.67 0 8.87 4.57 9.59 10.71"/><path stroke="#000" d="M169.91-61.11l3.33-6.92-3.24 3.42.09-3.5h0l-.09 3.5-3.06-3.58 2.97 7.08h0z"/><text x="154" y="-82.36" font-family="Lato" font-size="12">!a</text></g></g></svg>