<?xml-stylesheet href="spot.css" type="text/css"?><svg width="191pt" height="173pt" viewBox="0 0 191 172.53" xmlns="http://www.w3.org/2000/svg"><g class="graph" transform="translate(4 168.53)"><path fill="#fff" stroke="transparent" d="M-4 4v-172.53h191V4H-4z"/><text x="48" y="-151.93" font-family="Lato" font-size="12">Inf(</text><text x="69" y="-151.93" font-family="Lato" font-size="12" fill="#ff4da0">❶</text><text x="80" y="-151.93" font-family="Lato" font-size="12">) | Fin(</text><text x="117" y="-151.93" font-family="Lato" font-size="12" fill="#1f78b4">⓿</text><text x="130" y="-151.93" font-family="Lato" font-size="12">)</text><text x="61" y="-139.93" font-family="Lato" font-size="12">[Streett 1]</text><g class="node"><circle fill="#ffffa0" stroke="#000" cx="56" cy="-26.53" r="18"/><text text-anchor="middle" x="56" y="-23.43" font-family="Lato" font-size="12">1</text></g><g class="edge"><path fill="none" stroke="#000" d="M1.15-26.53h29.48"/><path stroke="#000" d="M37.94-26.53l-7-3.15 3.5 3.15h-3.5 3.5l-3.5 3.15 7-3.15h0z"/></g><g class="edge"><path fill="none" stroke="#000" d="M52.76-44.32c-.55-9.53.53-18.21 3.24-18.21 1.99 0 3.1 4.68 3.33 10.94"/><path stroke="#000" d="M59.24-44.32l3.24-6.96-3.2 3.46.05-3.5h0l-.05 3.5-3.1-3.54 3.06 7.04h0z"/><text x="49.5" y="-78.93" font-family="Lato" font-size="12">!a</text><text x="49.5" y="-65.93" font-family="Lato" font-size="12" fill="#1f78b4">⓿</text></g><g class="edge"><path fill="none" stroke="#000" d="M50.94-43.82C47.56-63.78 49.25-88.53 56-88.53c5.96 0 7.97 19.28 6.04 37.54"/><path stroke="#000" d="M61.06-43.82l4.07-6.51-3.59 3.05.47-3.47h0l-.47 3.47-2.65-3.9 2.17 7.36h0z"/><text x="40" y="-104.93" font-family="Lato" font-size="12">a &amp; b</text><text x="50.5" y="-91.93" font-family="Lato" font-size="12" fill="#ff4da0">❶</text></g><g class="node"><circle fill="#ffffa0" stroke="#000" cx="165" cy="-26.53" r="18"/><text text-anchor="middle" x="165" y="-23.43" font-family="Lato" font-size="12">0</text></g><g class="edge"><path fill="none" stroke="#000" d="M74.07-28.29c5.7-.51 12.08-.99 17.93-1.24 16.43-.71 20.57-.71 37 0 3.47.14 7.13.37 10.73.64"/><path stroke="#000" d="M146.93-28.29l-6.72-3.72 3.23 3.43-3.49-.29h0l3.49.29-3.75 2.85 7.24-2.56h0z"/><text x="92" y="-45.93" font-family="Lato" font-size="12">a &amp; !b</text><text x="104" y="-32.93" font-family="Lato" font-size="12" fill="#1f78b4">⓿</text></g><g class="edge"><path fill="none" stroke="#000" d="M150.64-15.11C144.48-10.56 136.8-5.87 129-3.53c-15.75 4.71-21.25 4.71-37 0-5.49-1.65-10.91-4.45-15.79-7.56"/><path stroke="#000" d="M70.36-15.11l3.99 6.56-1.11-4.57 2.89 1.98h0l-2.89-1.98 4.67-.62-7.55-1.37h0z"/><text x="106.5" y="-19.93" font-family="Lato" font-size="12">b</text><text x="105" y="-6.93" font-family="Lato" font-size="12" fill="#ff4da0">❶</text></g><g class="edge"><path fill="none" stroke="#000" d="M155.77-42.08c-2.6-10.36.48-20.45 9.23-20.45 6.7 0 10.08 5.91 10.12 13.34"/><path stroke="#000" d="M174.23-42.08l4-6.55-3.56 3.08.43-3.47h0l-.43 3.47-2.69-3.86 2.25 7.33h0z"/><text x="158.5" y="-78.93" font-family="Lato" font-size="12">!b</text><text x="158.5" y="-65.93" font-family="Lato" font-size="12" fill="#1f78b4">⓿</text></g></g></svg>