<svg xmlns="http://www.w3.org/2000/svg" xmlns:xlink="http://www.w3.org/1999/xlink" width="480" height="480" viewBox="0 0 360 360"><defs><symbol overflow="visible" id="r"><path d="M1.672-1.375h1.094V0H1.672zm0-6.672h1.094v3.531l-.11 1.922h-.875l-.11-1.922zm0 0"/></symbol><symbol overflow="visible" id="s"><path d="M3.422-8.375c-.48.824-.84 1.64-1.078 2.453a8.99 8.99 0 000 4.922 11.06 11.06 0 001.078 2.453h-.86C2.02.61 1.614-.219 1.345-1.03a7.982 7.982 0 01-.39-2.438c0-.8.128-1.61.39-2.422.27-.812.676-1.64 1.218-2.484zm0 0"/></symbol><symbol overflow="visible" id="t"><path d="M1.078-8.047h4.64v.906H2.173v2.375h3.187v.922H2.172V0H1.078zm0 0"/></symbol><symbol overflow="visible" id="u"><path d="M2-.906v3.203H1v-8.344h1v.922c.207-.352.469-.617.781-.797.32-.176.707-.266 1.156-.266.727 0 1.32.293 1.782.875.457.586.687 1.352.687 2.297 0 .95-.23 1.715-.687 2.297-.461.586-1.055.875-1.782.875-.449 0-.835-.086-1.156-.25C2.47-.27 2.207-.539 2-.906zm3.375-2.11c0-.726-.152-1.3-.453-1.718-.293-.414-.703-.625-1.234-.625-.524 0-.934.21-1.235.625C2.148-4.316 2-3.742 2-3.016c0 .73.148 1.305.453 1.72.3.417.711.624 1.235.624.53 0 .94-.207 1.234-.625.3-.414.453-.988.453-1.719zm0 0"/></symbol><symbol overflow="visible" id="v"><path d="M1.375-.922h1.781v-6.14l-1.937.39v-1l1.922-.375h1.093v7.125h1.782V0H1.375zm0 0"/></symbol><symbol overflow="visible" id="w"><path d="M.89-8.375h.86c.54.844.941 1.672 1.203 2.484.27.813.406 1.621.406 2.422 0 .805-.136 1.617-.406 2.438C2.691-.22 2.29.609 1.75 1.453H.89C1.368.63 1.724-.187 1.954-1a8.592 8.592 0 000-4.922A10.803 10.803 0 00.891-8.375zm0 0"/></symbol><symbol overflow="visible" id="y"><path d="M2.688-4.328a3.364 3.364 0 00-.72.875 1.844 1.844 0 00-.234.906c0 .524.188.961.563 1.313.383.343.867.515 1.453.515.332 0 .648-.054.953-.172.3-.113.582-.285.844-.515zm.765-.61l2.735 2.813c.207-.32.367-.664.484-1.031a4.33 4.33 0 00.219-1.172h1c-.043.48-.157.953-.344 1.422a6.55 6.55 0 01-.781 1.375L8.28 0h-1.36l-.78-.797a3.975 3.975 0 01-1.172.719A3.68 3.68 0 013.64.156c-.868 0-1.575-.242-2.125-.734-.543-.5-.813-1.133-.813-1.906 0-.457.117-.891.36-1.297.238-.406.597-.785 1.078-1.14a2.963 2.963 0 01-.407-.673 1.889 1.889 0 01-.125-.672c0-.582.196-1.05.594-1.406.406-.351.938-.531 1.594-.531.3 0 .598.039.89.11.301.062.602.155.907.28v.985a5.199 5.199 0 00-.89-.375 2.523 2.523 0 00-.798-.14c-.375 0-.683.1-.922.296-.23.2-.343.461-.343.781 0 .18.05.36.156.547.101.188.32.45.656.782zm0 0"/></symbol><symbol overflow="visible" id="z"><path d="M2.125-.922h3.797V0H.812v-.922c.407-.426.97-1 1.688-1.719.719-.718 1.164-1.18 1.344-1.39.351-.395.597-.727.734-1a1.8 1.8 0 00.203-.797c0-.426-.152-.774-.453-1.047-.293-.27-.683-.406-1.172-.406-.336 0-.695.062-1.078.187a6.84 6.84 0 00-1.219.532v-1.11c.438-.164.848-.297 1.235-.39.383-.094.734-.141 1.047-.141.832 0 1.492.21 1.984.625.5.418.75.976.75 1.672 0 .336-.063.652-.188.953-.125.293-.351.64-.671 1.047-.094.105-.383.406-.86.906L2.125-.922zm0 0"/></symbol><symbol overflow="visible" id="A"><path d="M4.484-4.344c.52.117.926.352 1.22.703.288.344.437.778.437 1.297 0 .793-.278 1.406-.829 1.844C4.77-.062 4 .156 3 .156c-.344 0-.7-.039-1.063-.11A6.445 6.445 0 01.845-.25v-1.047c.3.18.629.313.984.406.363.086.742.125 1.14.125.677 0 1.192-.129 1.548-.39.363-.27.546-.664.546-1.188 0-.469-.167-.836-.5-1.11-.335-.269-.796-.405-1.39-.405h-.938v-.891h.985c.531 0 .937-.102 1.219-.313.289-.218.437-.53.437-.937 0-.414-.152-.734-.453-.953-.293-.219-.711-.328-1.25-.328-.305 0-.625.031-.969.093-.336.063-.71.168-1.125.313v-.984c.414-.114.8-.196 1.156-.25a6.093 6.093 0 011.032-.094c.832 0 1.488.187 1.968.562.477.375.72.887.72 1.532 0 .449-.134.828-.391 1.14-.25.305-.61.512-1.079.625zm0 0"/></symbol><symbol overflow="visible" id="B"><path d="M4.172-7.11l-2.75 4.298h2.75zm-.281-.937h1.375v5.235h1.14v.906h-1.14V0H4.172v-1.906H.547v-1.047zm0 0"/></symbol><symbol overflow="visible" id="C"><path d="M1.188-8.047h4.28v.906h-3.28v1.985c.156-.063.312-.102.468-.125.164-.032.328-.047.485-.047.894 0 1.601.25 2.125.75.53.492.796 1.156.796 2 0 .867-.273 1.539-.812 2.015-.543.481-1.305.72-2.281.72-.336 0-.68-.032-1.031-.095a6.916 6.916 0 01-1.079-.25V-1.28c.32.18.657.308 1 .39a4.49 4.49 0 001.094.125c.625 0 1.113-.16 1.469-.484.363-.332.547-.773.547-1.328 0-.563-.184-1.004-.547-1.328-.356-.332-.844-.5-1.469-.5A3.98 3.98 0 001.187-4zm0 0"/></symbol><symbol overflow="visible" id="D"><path d="M2.797-5.844c-.45 0-.79.227-1.016.672-.218.438-.328 1.094-.328 1.969 0 .887.11 1.547.328 1.984.227.438.567.657 1.016.657.445 0 .781-.22 1-.657.226-.437.344-1.097.344-1.984 0-.875-.118-1.531-.344-1.969-.219-.445-.555-.672-1-.672zm0-.687c.719 0 1.265.289 1.64.86.383.562.579 1.386.579 2.468 0 1.086-.196 1.914-.579 2.484-.375.563-.921.844-1.64.844-.719 0-1.274-.281-1.656-.844-.375-.57-.563-1.398-.563-2.484 0-1.082.188-1.906.563-2.469.382-.57.937-.86 1.656-.86zm0 0"/></symbol><symbol overflow="visible" id="E"><path d="M1.094-.734h1.422v-4.891l-1.547.313v-.797L2.5-6.406h.875v5.672h1.406V0H1.094zm0 0"/></symbol><symbol overflow="visible" id="F"><path d="M1.688-.734h3.03V0H.642v-.734c.332-.332.78-.786 1.343-1.36.57-.582.93-.957 1.079-1.125.28-.312.472-.57.578-.781.113-.219.171-.43.171-.64 0-.344-.12-.618-.359-.829-.242-.218-.555-.328-.937-.328-.274 0-.559.047-.86.14a5.288 5.288 0 00-.968.423v-.875c.351-.133.68-.239.984-.313.3-.07.578-.11.828-.11.664 0 1.195.169 1.594.5.394.337.593.778.593 1.329 0 .273-.054.527-.156.766-.093.23-.273.507-.531.828-.074.086-.305.324-.688.718-.386.399-.93.95-1.624 1.657zm0 0"/></symbol><symbol overflow="visible" id="G"><path d="M3.563-3.453c.414.086.738.265.968.547.239.281.36.633.36 1.047 0 .625-.22 1.117-.657 1.468-.43.344-1.043.516-1.843.516a4.88 4.88 0 01-.844-.078 5.73 5.73 0 01-.875-.234v-.844c.238.136.5.242.781.312.29.074.594.11.906.11.54 0 .954-.102 1.235-.313.289-.219.437-.531.437-.937 0-.383-.136-.68-.406-.891-.262-.219-.625-.328-1.094-.328h-.75v-.703h.782c.425 0 .75-.082.968-.25.227-.176.344-.426.344-.75 0-.32-.121-.57-.36-.75-.23-.176-.558-.266-.984-.266a4.14 4.14 0 00-.765.078 9.488 9.488 0 00-.907.235v-.766c.332-.094.641-.16.922-.203.29-.05.567-.078.828-.078.657 0 1.172.152 1.547.453.383.305.578.71.578 1.219 0 .355-.105.656-.312.906-.2.242-.484.406-.86.5zm0 0"/></symbol><symbol overflow="visible" id="H"><path d="M4.875-5.844v.938A3.449 3.449 0 004-5.22a4.158 4.158 0 00-.938-.11c-.492 0-.859.079-1.109.235a.719.719 0 00-.36.657c0 .23.087.414.266.546.176.125.532.25 1.063.375l.328.079c.707.148 1.207.359 1.5.64.29.274.438.652.438 1.14 0 .555-.22.997-.657 1.329-.437.324-1.047.484-1.828.484-.324 0-.664-.031-1.015-.093A8.367 8.367 0 01.593-.22v-1.015c.363.187.722.328 1.078.421.351.094.707.141 1.062.141.457 0 .813-.078 1.063-.234a.768.768 0 00.375-.672c0-.27-.09-.477-.266-.625-.18-.145-.574-.281-1.187-.406l-.344-.094c-.617-.125-1.059-.317-1.328-.578-.274-.27-.406-.64-.406-1.11 0-.562.195-.992.593-1.296.407-.313.977-.47 1.72-.47.362 0 .706.028 1.03.079.32.055.618.133.891.234zm0 0"/></symbol><symbol overflow="visible" id="I"><path d="M2.016-7.719v1.703h2.03v.766h-2.03v3.266c0 .492.066.808.203.953.133.136.406.203.812.203h1.016V0H3.03C2.27 0 1.742-.14 1.453-.422c-.293-.289-.437-.812-.437-1.562V-5.25h-.72v-.766h.72v-1.703zm0 0"/></symbol><symbol overflow="visible" id="J"><path d="M3.766-3.031c-.793 0-1.344.094-1.657.281-.304.188-.453.5-.453.938 0 .343.114.62.344.828.227.21.54.312.938.312.55 0 .988-.191 1.312-.578.332-.395.5-.91.5-1.547v-.234zm1.968-.406V0H4.75v-.906c-.219.367-.5.636-.844.812-.336.164-.746.25-1.234.25-.617 0-1.106-.172-1.469-.515C.836-.703.656-1.164.656-1.75c0-.676.223-1.188.672-1.531.457-.344 1.14-.516 2.047-.516H4.75v-.094c0-.457-.152-.812-.453-1.062-.293-.25-.711-.375-1.25-.375-.344 0-.684.043-1.016.125-.324.086-.636.21-.937.375v-.906c.363-.145.718-.25 1.062-.313.344-.07.672-.11.985-.11.875 0 1.523.227 1.953.673.426.449.64 1.132.64 2.046zm0 0"/></symbol><symbol overflow="visible" id="K"><path d="M6.188-3.25v.484H1.64c.039.68.242 1.196.609 1.547.363.356.875.532 1.531.532a4.34 4.34 0 001.11-.141 5.48 5.48 0 001.062-.406v.921A5.004 5.004 0 014.86.031c-.375.082-.75.125-1.125.125C2.766.156 2-.117 1.438-.672.882-1.234.609-1.992.609-2.953c0-.977.266-1.754.797-2.328.532-.582 1.25-.875 2.157-.875.8 0 1.437.261 1.906.781.476.523.718 1.23.718 2.125zm-1-.297c0-.539-.153-.973-.454-1.297-.293-.32-.683-.484-1.171-.484-.555 0-.997.156-1.329.469-.324.312-.511.75-.562 1.312zm0 0"/></symbol><symbol overflow="visible" id="L"><path d="M1.172-1.36h1.14V0h-1.14zm0 0"/></symbol><symbol overflow="visible" id="M"><path d="M5.719-4.86c.25-.445.547-.773.89-.984.344-.207.75-.312 1.22-.312.624 0 1.1.218 1.437.656.343.438.515 1.063.515 1.875V0h-1v-3.594c0-.582-.105-1.008-.312-1.281-.2-.281-.508-.422-.922-.422-.512 0-.918.172-1.219.516-.293.336-.437.793-.437 1.375V0h-1v-3.594c0-.582-.106-1.008-.313-1.281-.2-.281-.512-.422-.937-.422-.5 0-.903.172-1.204.516C2.146-4.445 2-3.988 2-3.406V0H1v-6.016h1v.938c.219-.375.484-.645.797-.813.32-.175.695-.265 1.125-.265.437 0 .805.11 1.11.328.312.219.538.543.687.969zm0 0"/></symbol><symbol overflow="visible" id="N"><path d="M1.031-8.36h1V0h-1zm0 0"/></symbol><symbol overflow="visible" id="O"><path d="M-5.844-4.875h.938c-.145.281-.25.574-.313.875-.07.305-.11.617-.11.938 0 .492.079.859.235 1.109.149.242.367.36.657.36.23 0 .414-.087.546-.266.125-.176.25-.532.375-1.063l.079-.328c.148-.707.359-1.207.64-1.5.274-.29.652-.438 1.14-.438.555 0 .997.22 1.329.657.324.437.484 1.047.484 1.828 0 .324-.031.664-.093 1.015C0-1.344-.095-.977-.22-.593h-1.015c.187-.363.328-.722.421-1.078.094-.351.141-.707.141-1.062 0-.457-.078-.813-.234-1.063a.768.768 0 00-.672-.375c-.27 0-.477.09-.625.266-.145.18-.281.574-.406 1.187l-.094.344c-.125.617-.317 1.059-.578 1.328-.27.274-.64.406-1.11.406-.562 0-.992-.195-1.296-.593-.313-.407-.47-.977-.47-1.72 0-.362.028-.706.079-1.03.055-.32.133-.618.234-.891zm0 0"/></symbol><symbol overflow="visible" id="P"><path d="M-7.719-2.016h1.703v-2.03h.766v2.03h3.266c.492 0 .808-.066.953-.203.136-.133.203-.406.203-.812v-1.016H0v1.016c0 .761-.14 1.289-.422 1.578-.289.293-.812.437-1.562.437H-5.25v.72h-.766v-.72h-1.703zm0 0"/></symbol><symbol overflow="visible" id="Q"><path d="M-3.031-3.766c0 .793.094 1.344.281 1.657.188.304.5.453.938.453.343 0 .62-.114.828-.344.21-.227.312-.54.312-.938 0-.55-.191-.988-.578-1.312-.395-.332-.91-.5-1.547-.5h-.234zm-.406-1.968H0v.984h-.906c.367.219.636.5.812.844.164.336.25.746.25 1.234 0 .617-.172 1.106-.515 1.469-.344.367-.805.547-1.391.547-.676 0-1.188-.223-1.531-.672-.344-.457-.516-1.14-.516-2.047V-4.75h-.094c-.457 0-.812.152-1.062.453-.25.293-.375.711-.375 1.25 0 .344.043.684.125 1.016.086.324.21.636.375.937h-.906a5.596 5.596 0 01-.313-1.062 4.93 4.93 0 01-.11-.985c0-.875.227-1.523.673-1.953.449-.426 1.132-.64 2.046-.64zm0 0"/></symbol><symbol overflow="visible" id="R"><path d="M-3.25-6.188h.484v4.547c.68-.039 1.196-.242 1.547-.609.356-.363.532-.875.532-1.531a4.34 4.34 0 00-.141-1.11 5.48 5.48 0 00-.406-1.062h.921c.157.355.274.719.344 1.094.082.375.125.75.125 1.125 0 .968-.273 1.734-.828 2.296-.562.555-1.32.829-2.281.829-.977 0-1.754-.266-2.328-.797-.582-.532-.875-1.25-.875-2.157 0-.8.261-1.437.781-1.906.523-.476 1.23-.718 2.125-.718zm-.297 1c-.539 0-.973.153-1.297.454-.32.293-.484.683-.484 1.171 0 .555.156.997.469 1.329.312.324.75.511 1.312.562zm0 0"/></symbol><symbol overflow="visible" id="S"><path d="M-1.36-1.172v-1.14H0v1.14zm0 0"/></symbol><symbol overflow="visible" id="T"><path d="M-5.11-5h-3.25v-.984H0V-5h-.906c.367.21.636.477.812.797.164.312.25.695.25 1.14 0 .72-.285 1.31-.86 1.766-.581.461-1.347.688-2.296.688-.945 0-1.707-.227-2.281-.688-.582-.457-.875-1.047-.875-1.766 0-.445.09-.828.265-1.14.168-.32.43-.586.782-.797zM-3-1.625c.73 0 1.305-.148 1.719-.453.406-.3.61-.711.61-1.235 0-.519-.204-.93-.61-1.234C-1.695-4.847-2.27-5-3-5c-.727 0-1.297.152-1.703.453a1.455 1.455 0 00-.625 1.234c0 .524.21.934.625 1.235.406.305.976.453 1.703.453zm0 0"/></symbol><symbol overflow="visible" id="U"><path d="M-5.094-4.516c-.062.106-.11.227-.14.36a1.743 1.743 0 00-.047.422c0 .562.183.996.547 1.296.367.293.886.438 1.562.438H0v1h-6.016v-1h.938a1.928 1.928 0 01-.813-.797c-.175-.332-.265-.738-.265-1.219 0-.07.008-.144.015-.218 0-.082.012-.176.032-.282zm0 0"/></symbol><clipPath id="a"><path d="M37.152 5.48h317.371v320.372H37.153zm0 0"/></clipPath><clipPath id="b"><path d="M37.152 273h317.371v1H37.153zm0 0"/></clipPath><clipPath id="c"><path d="M37.152 179h317.371v2H37.153zm0 0"/></clipPath><clipPath id="d"><path d="M37.152 85h317.371v2H37.153zm0 0"/></clipPath><clipPath id="e"><path d="M88 5.48h2v320.372h-2zm0 0"/></clipPath><clipPath id="f"><path d="M181 5.48h2v320.372h-2zm0 0"/></clipPath><clipPath id="g"><path d="M274 5.48h2v320.372h-2zm0 0"/></clipPath><clipPath id="h"><path d="M37.152 320h317.371v2H37.153zm0 0"/></clipPath><clipPath id="i"><path d="M37.152 226h317.371v2H37.153zm0 0"/></clipPath><clipPath id="j"><path d="M37.152 132h317.371v2H37.153zm0 0"/></clipPath><clipPath id="k"><path d="M37.152 38h317.371v2H37.153zm0 0"/></clipPath><clipPath id="l"><path d="M41 5.48h2v320.372h-2zm0 0"/></clipPath><clipPath id="m"><path d="M134 5.48h2v320.372h-2zm0 0"/></clipPath><clipPath id="n"><path d="M227 5.48h2v320.372h-2zm0 0"/></clipPath><clipPath id="o"><path d="M320 5.48h3v320.372h-3zm0 0"/></clipPath><clipPath id="p"><path d="M37.152 5.48h317.371v320.372H37.153zm0 0"/></clipPath><clipPath id="q"><path d="M104 24h250.523v12H104zm0 0"/></clipPath></defs><path fill="#fff" d="M0 0h360v360H0z"/><path fill="#fff" d="M0 0h360v360H0z"/><path d="M0 360h360V0H0zm0 0" fill="none" stroke-width="1.067" stroke-linecap="round" stroke-linejoin="round" stroke="#fff" stroke-miterlimit="10"/><g clip-path="url(#a)"><path d="M37.152 325.848h317.371V5.477H37.153zm0 0" fill="#ebebeb"/></g><g clip-path="url(#b)"><path d="M37.152 273.707H354.52" fill="none" stroke-width=".533" stroke-linejoin="round" stroke="#fff" stroke-miterlimit="10"/></g><g clip-path="url(#c)"><path d="M37.152 179.758H354.52" fill="none" stroke-width=".533" stroke-linejoin="round" stroke="#fff" stroke-miterlimit="10"/></g><g clip-path="url(#d)"><path d="M37.152 85.809H354.52" fill="none" stroke-width=".533" stroke-linejoin="round" stroke="#fff" stroke-miterlimit="10"/></g><g clip-path="url(#e)"><path d="M88.805 325.848V5.48" fill="none" stroke-width=".533" stroke-linejoin="round" stroke="#fff" stroke-miterlimit="10"/></g><g clip-path="url(#f)"><path d="M181.875 325.848V5.48" fill="none" stroke-width=".533" stroke-linejoin="round" stroke="#fff" stroke-miterlimit="10"/></g><g clip-path="url(#g)"><path d="M274.945 325.848V5.48" fill="none" stroke-width=".533" stroke-linejoin="round" stroke="#fff" stroke-miterlimit="10"/></g><g clip-path="url(#h)"><path d="M37.152 320.684H354.52" fill="none" stroke-width="1.067" stroke-linejoin="round" stroke="#fff" stroke-miterlimit="10"/></g><g clip-path="url(#i)"><path d="M37.152 226.73H354.52" fill="none" stroke-width="1.067" stroke-linejoin="round" stroke="#fff" stroke-miterlimit="10"/></g><g clip-path="url(#j)"><path d="M37.152 132.781H354.52" fill="none" stroke-width="1.067" stroke-linejoin="round" stroke="#fff" stroke-miterlimit="10"/></g><g clip-path="url(#k)"><path d="M37.152 38.832H354.52" fill="none" stroke-width="1.067" stroke-linejoin="round" stroke="#fff" stroke-miterlimit="10"/></g><g clip-path="url(#l)"><path d="M42.27 325.848V5.48" fill="none" stroke-width="1.067" stroke-linejoin="round" stroke="#fff" stroke-miterlimit="10"/></g><g clip-path="url(#m)"><path d="M135.34 325.848V5.48" fill="none" stroke-width="1.067" stroke-linejoin="round" stroke="#fff" stroke-miterlimit="10"/></g><g clip-path="url(#n)"><path d="M228.41 325.848V5.48" fill="none" stroke-width="1.067" stroke-linejoin="round" stroke="#fff" stroke-miterlimit="10"/></g><g clip-path="url(#o)"><path d="M321.48 325.848V5.48" fill="none" stroke-width="1.067" stroke-linejoin="round" stroke="#fff" stroke-miterlimit="10"/></g><g clip-path="url(#p)"><path d="M37.152 325.848L354.52 5.48" fill="none" stroke-width="1.067" stroke-linejoin="round" stroke="#fff" stroke-miterlimit="10"/></g><path d="M100.066 29.438c0 2.605-3.91 2.605-3.91 0 0-2.606 3.91-2.606 3.91 0M90.758 179.758c0 2.605-3.906 2.605-3.906 0 0-2.606 3.906-2.606 3.906 0M81.453 254.918c0 2.605-3.91 2.605-3.91 0 0-2.606 3.91-2.606 3.91 0M72.145 292.496c0 2.606-3.91 2.606-3.91 0 0-2.605 3.91-2.605 3.91 0M53.531 311.285c0 2.61-3.91 2.61-3.91 0 0-2.605 3.91-2.605 3.91 0M81.453 283.102c0 2.605-3.91 2.605-3.91 0 0-2.606 3.91-2.606 3.91 0M118.68 245.523c0 2.606-3.91 2.606-3.91 0 0-2.609 3.91-2.609 3.91 0M193.137 170.363c0 2.606-3.91 2.606-3.91 0 0-2.61 3.91-2.61 3.91 0M342.05 20.043c0 2.605-3.91 2.605-3.91 0 0-2.61 3.91-2.61 3.91 0M62.84 301.89c0 2.61-3.91 2.61-3.91 0 0-2.605 3.91-2.605 3.91 0" stroke-width=".709" stroke-linecap="round" stroke-linejoin="round" stroke="#000" stroke-miterlimit="10"/><g clip-path="url(#q)"><use xlink:href="#r" x="102.766" y="33.185"/><use xlink:href="#s" x="106.766" y="33.185"/><use xlink:href="#s" x="110.766" y="33.185"/><use xlink:href="#t" x="114.766" y="33.185"/><use xlink:href="#s" x="120.766" y="33.185"/><use xlink:href="#u" x="124.766" y="33.185"/><use xlink:href="#v" x="131.766" y="33.185"/><use xlink:href="#w" x="138.766" y="33.185"/><use xlink:href="#w" x="142.766" y="33.185"/><use xlink:href="#x" x="146.766" y="33.185"/><use xlink:href="#y" x="150.766" y="33.185"/><use xlink:href="#x" x="159.766" y="33.185"/><use xlink:href="#s" x="163.766" y="33.185"/><use xlink:href="#t" x="167.766" y="33.185"/><use xlink:href="#s" x="173.766" y="33.185"/><use xlink:href="#u" x="177.766" y="33.185"/><use xlink:href="#z" x="184.766" y="33.185"/><use xlink:href="#w" x="191.766" y="33.185"/><use xlink:href="#w" x="195.766" y="33.185"/><use xlink:href="#x" x="199.766" y="33.185"/><use xlink:href="#y" x="203.766" y="33.185"/><use xlink:href="#x" x="212.766" y="33.185"/><use xlink:href="#s" x="216.766" y="33.185"/><use xlink:href="#t" x="220.766" y="33.185"/><use xlink:href="#s" x="226.766" y="33.185"/><use xlink:href="#u" x="230.766" y="33.185"/><use xlink:href="#A" x="237.766" y="33.185"/><use xlink:href="#w" x="244.766" y="33.185"/><use xlink:href="#w" x="248.766" y="33.185"/><use xlink:href="#x" x="252.766" y="33.185"/><use xlink:href="#y" x="256.766" y="33.185"/><use xlink:href="#x" x="265.766" y="33.185"/><use xlink:href="#s" x="269.766" y="33.185"/><use xlink:href="#t" x="273.766" y="33.185"/><use xlink:href="#s" x="279.766" y="33.185"/><use xlink:href="#u" x="283.766" y="33.185"/><use xlink:href="#B" x="290.766" y="33.185"/><use xlink:href="#w" x="297.766" y="33.185"/><use xlink:href="#w" x="301.766" y="33.185"/><use xlink:href="#x" x="305.766" y="33.185"/><use xlink:href="#y" x="309.766" y="33.185"/><use xlink:href="#x" x="318.766" y="33.185"/><use xlink:href="#s" x="322.766" y="33.185"/><use xlink:href="#t" x="326.766" y="33.185"/><use xlink:href="#s" x="332.766" y="33.185"/><use xlink:href="#u" x="336.766" y="33.185"/><use xlink:href="#C" x="343.766" y="33.185"/><use xlink:href="#w" x="350.766" y="33.185"/><use xlink:href="#w" x="354.766" y="33.185"/><use xlink:href="#w" x="358.766" y="33.185"/></g><use xlink:href="#r" x="93.457" y="183.505"/><use xlink:href="#s" x="97.457" y="183.505"/><use xlink:href="#s" x="101.457" y="183.505"/><use xlink:href="#t" x="105.457" y="183.505"/><use xlink:href="#s" x="111.457" y="183.505"/><use xlink:href="#u" x="115.457" y="183.505"/><use xlink:href="#v" x="122.457" y="183.505"/><use xlink:href="#w" x="129.457" y="183.505"/><use xlink:href="#w" x="133.457" y="183.505"/><use xlink:href="#x" x="137.457" y="183.505"/><use xlink:href="#y" x="141.457" y="183.505"/><use xlink:href="#x" x="150.457" y="183.505"/><use xlink:href="#s" x="154.457" y="183.505"/><use xlink:href="#t" x="158.457" y="183.505"/><use xlink:href="#s" x="164.457" y="183.505"/><use xlink:href="#u" x="168.457" y="183.505"/><use xlink:href="#z" x="175.457" y="183.505"/><use xlink:href="#w" x="182.457" y="183.505"/><use xlink:href="#w" x="186.457" y="183.505"/><use xlink:href="#x" x="190.457" y="183.505"/><use xlink:href="#y" x="194.457" y="183.505"/><use xlink:href="#x" x="203.457" y="183.505"/><use xlink:href="#s" x="207.457" y="183.505"/><use xlink:href="#t" x="211.457" y="183.505"/><use xlink:href="#s" x="217.457" y="183.505"/><use xlink:href="#u" x="221.457" y="183.505"/><use xlink:href="#A" x="228.457" y="183.505"/><use xlink:href="#w" x="235.457" y="183.505"/><use xlink:href="#w" x="239.457" y="183.505"/><use xlink:href="#x" x="243.457" y="183.505"/><use xlink:href="#y" x="247.457" y="183.505"/><use xlink:href="#x" x="256.457" y="183.505"/><use xlink:href="#s" x="260.457" y="183.505"/><use xlink:href="#t" x="264.457" y="183.505"/><use xlink:href="#s" x="270.457" y="183.505"/><use xlink:href="#u" x="274.457" y="183.505"/><use xlink:href="#B" x="281.457" y="183.505"/><use xlink:href="#w" x="288.457" y="183.505"/><use xlink:href="#w" x="292.457" y="183.505"/><use xlink:href="#w" x="296.457" y="183.505"/><g><use xlink:href="#r" x="84.152" y="258.665"/><use xlink:href="#s" x="88.152" y="258.665"/><use xlink:href="#s" x="92.152" y="258.665"/><use xlink:href="#t" x="96.152" y="258.665"/><use xlink:href="#s" x="102.152" y="258.665"/><use xlink:href="#u" x="106.152" y="258.665"/><use xlink:href="#v" x="113.152" y="258.665"/><use xlink:href="#w" x="120.152" y="258.665"/><use xlink:href="#w" x="124.152" y="258.665"/><use xlink:href="#x" x="128.152" y="258.665"/><use xlink:href="#y" x="132.152" y="258.665"/><use xlink:href="#x" x="141.152" y="258.665"/><use xlink:href="#s" x="145.152" y="258.665"/><use xlink:href="#t" x="149.152" y="258.665"/><use xlink:href="#s" x="155.152" y="258.665"/><use xlink:href="#u" x="159.152" y="258.665"/><use xlink:href="#z" x="166.152" y="258.665"/><use xlink:href="#w" x="173.152" y="258.665"/><use xlink:href="#w" x="177.152" y="258.665"/><use xlink:href="#x" x="181.152" y="258.665"/><use xlink:href="#y" x="185.152" y="258.665"/><use xlink:href="#x" x="194.152" y="258.665"/><use xlink:href="#s" x="198.152" y="258.665"/><use xlink:href="#t" x="202.152" y="258.665"/><use xlink:href="#s" x="208.152" y="258.665"/><use xlink:href="#u" x="212.152" y="258.665"/><use xlink:href="#A" x="219.152" y="258.665"/><use xlink:href="#w" x="226.152" y="258.665"/><use xlink:href="#w" x="230.152" y="258.665"/><use xlink:href="#w" x="234.152" y="258.665"/></g><g fill="#4d4d4d"><use xlink:href="#D" x="26.219" y="323.352"/></g><g fill="#4d4d4d"><use xlink:href="#E" x="20.219" y="229.398"/><use xlink:href="#D" x="26.219" y="229.398"/></g><g fill="#4d4d4d"><use xlink:href="#F" x="20.219" y="135.449"/><use xlink:href="#D" x="26.219" y="135.449"/></g><g fill="#4d4d4d"><use xlink:href="#G" x="20.219" y="41.5"/><use xlink:href="#D" x="26.219" y="41.5"/></g><path d="M34.41 320.684h2.742M34.41 226.73h2.742M34.41 132.781h2.742M34.41 38.832h2.742M42.27 328.59v-2.742M135.34 328.59v-2.742M228.41 328.59v-2.742M321.48 328.59v-2.742" fill="none" stroke-width="1.067" stroke-linejoin="round" stroke="#333" stroke-miterlimit="10"/><g fill="#4d4d4d"><use xlink:href="#D" x="39.27" y="336.949"/></g><g fill="#4d4d4d"><use xlink:href="#E" x="129.34" y="336.949"/><use xlink:href="#D" x="135.34" y="336.949"/></g><g fill="#4d4d4d"><use xlink:href="#F" x="222.41" y="336.949"/><use xlink:href="#D" x="228.41" y="336.949"/></g><g fill="#4d4d4d"><use xlink:href="#G" x="315.48" y="336.949"/><use xlink:href="#D" x="321.48" y="336.949"/></g><g><use xlink:href="#H" x="162.336" y="350.73"/><use xlink:href="#I" x="168.336" y="350.73"/><use xlink:href="#J" x="172.336" y="350.73"/><use xlink:href="#I" x="179.336" y="350.73"/><use xlink:href="#K" x="183.336" y="350.73"/><use xlink:href="#H" x="190.336" y="350.73"/><use xlink:href="#L" x="196.336" y="350.73"/><use xlink:href="#H" x="199.336" y="350.73"/><use xlink:href="#M" x="205.336" y="350.73"/><use xlink:href="#J" x="216.336" y="350.73"/><use xlink:href="#N" x="223.336" y="350.73"/><use xlink:href="#N" x="226.336" y="350.73"/></g><g><use xlink:href="#O" x="13.691" y="199.164"/><use xlink:href="#P" x="13.691" y="193.164"/><use xlink:href="#Q" x="13.691" y="189.164"/><use xlink:href="#P" x="13.691" y="182.164"/><use xlink:href="#R" x="13.691" y="178.164"/><use xlink:href="#O" x="13.691" y="171.164"/><use xlink:href="#S" x="13.691" y="165.164"/><use xlink:href="#T" x="13.691" y="162.164"/><use xlink:href="#R" x="13.691" y="155.164"/><use xlink:href="#P" x="13.691" y="148.164"/><use xlink:href="#R" x="13.691" y="144.164"/><use xlink:href="#U" x="13.691" y="137.164"/></g></svg>